<svg width="110" height="87" viewBox="0 0 110 87" fill="none" xmlns="http://www.w3.org/2000/svg">
<g filter="url(#filter0_dddd)">
<path d="M45.2778 35.4744C50.7986 32.2358 53.6806 27.3352 53.6806 19.7074C53.6806 4.66477 44.5486 1 34.0104 1H5V76.5114H34.8264C46.0069 76.5114 56.5104 69.9276 56.5104 54.5867C56.5104 45.1051 52.8472 38.0952 45.2778 35.4744V35.4744ZM18.5243 13.8906H31.2153C36.0937 13.8906 40.4861 15.5739 40.4861 22.5199C40.4861 28.9332 37.066 31.5114 32.2396 31.5114H18.5243V13.8906V13.8906ZM32.9861 63.6847H18.5243V42.8892H33.2639C39.2187 42.8892 42.9861 45.9361 42.9861 53.6705C42.9861 61.2983 38.4896 63.6847 32.9861 63.6847V63.6847ZM95.2257 12.3991H70.2778V4.96307H95.2257V12.3991V12.3991ZM105 49.9631C105 33.7912 97.2917 20.304 83.316 20.304C69.7396 20.304 60.5208 32.8324 60.5208 49.2386C60.5208 66.2628 69.2535 77.9389 83.316 77.9389C93.9583 77.9389 100.851 72.0582 104.167 59.5511H93.3681C92.2049 64.2173 87.4132 66.6889 83.6979 66.6889C76.5278 66.6889 72.7604 61.5327 72.7604 52.7756H104.896C104.948 51.8807 105 50.9219 105 49.9631ZM72.7778 43.3153C73.1771 36.1349 77.066 31.6392 82.934 31.6392C89.0799 31.6392 92.1701 36.071 92.691 43.3153H72.7778Z" fill="#FFED7C"/>
<path d="M5 0.5H4.5V1V76.5114V77.0114H5H34.8264C40.5095 77.0114 46.058 75.3382 50.1926 71.6761C54.3376 68.0049 57.0104 62.3798 57.0104 54.5867C57.0104 45.3815 53.5893 38.3286 46.4033 35.3661C48.8065 33.7994 50.6816 31.8696 51.9883 29.4765C53.4479 26.8034 54.1806 23.5844 54.1806 19.7074C54.1806 12.0803 51.8601 7.23539 48.104 4.31784C44.3736 1.4202 39.3211 0.5 34.0104 0.5H5ZM19.0243 31.0114V14.3906H31.2153C33.6133 14.3906 35.7995 14.8075 37.3789 15.9996C38.9303 17.1705 39.9861 19.1597 39.9861 22.5199C39.9861 25.6408 39.1552 27.7422 37.8207 29.0656C36.4849 30.3903 34.5681 31.0114 32.2396 31.0114H19.0243ZM69.7778 12.3991V12.8991H70.2778H95.2257V12.3991H95.7257V4.96307V4.46307H95.2257H70.2778H69.7778V4.96307V12.3991ZM104.65 59.6793L104.817 59.0511H104.167H93.368H92.9774L92.8829 59.4302C91.7902 63.8138 87.2517 66.1889 83.6979 66.1889C80.2453 66.1889 77.6668 64.9549 75.9363 62.7108C74.2584 60.5349 73.3341 57.3521 73.2646 53.2756H104.896H105.368L105.395 52.8046C105.447 51.91 105.5 50.9381 105.5 49.9631C105.5 41.8057 103.557 34.285 99.8121 28.7876C96.0569 23.2751 90.4894 19.804 83.316 19.804C69.3509 19.804 60.0208 32.6842 60.0208 49.2386C60.0208 57.8307 62.2241 65.1236 66.2509 70.2806C70.2871 75.4496 76.1315 78.4389 83.316 78.4389C88.735 78.4389 93.2428 76.9389 96.8179 73.8115C100.385 70.6913 102.976 65.9926 104.65 59.6793ZM32.9861 63.1847H19.0243V43.3892H33.2639C36.1613 43.3892 38.4404 44.1297 40.0002 45.7286C41.5622 47.3298 42.4861 49.8771 42.4861 53.6705C42.4861 57.3838 41.3954 59.7291 39.7249 61.1581C38.0395 62.5997 35.6769 63.1847 32.9861 63.1847ZM92.1485 42.8153H73.3132C73.5797 39.5511 74.602 36.9324 76.1826 35.1125C77.8394 33.2048 80.1388 32.1392 82.934 32.1392C85.8713 32.1392 88.0298 33.1902 89.531 35.0724C90.9725 36.8799 91.8443 39.5001 92.1485 42.8153Z" stroke="#333030" stroke-opacity="0.5"/>
</g>
<defs>
<filter id="filter0_dddd" x="0" y="0" width="110" height="86.9389" filterUnits="userSpaceOnUse" color-interpolation-filters="sRGB">
<feFlood flood-opacity="0" result="BackgroundImageFix"/>
<feColorMatrix in="SourceAlpha" type="matrix" values="0 0 0 0 0 0 0 0 0 0 0 0 0 0 0 0 0 0 127 0"/>
<feOffset dy="4"/>
<feGaussianBlur stdDeviation="2"/>
<feColorMatrix type="matrix" values="0 0 0 0 0 0 0 0 0 0 0 0 0 0 0 0 0 0 0.25 0"/>
<feBlend mode="normal" in2="BackgroundImageFix" result="effect1_dropShadow"/>
<feColorMatrix in="SourceAlpha" type="matrix" values="0 0 0 0 0 0 0 0 0 0 0 0 0 0 0 0 0 0 127 0"/>
<feOffset dy="4"/>
<feGaussianBlur stdDeviation="2"/>
<feColorMatrix type="matrix" values="0 0 0 0 0 0 0 0 0 0 0 0 0 0 0 0 0 0 0.25 0"/>
<feBlend mode="normal" in2="effect1_dropShadow" result="effect2_dropShadow"/>
<feColorMatrix in="SourceAlpha" type="matrix" values="0 0 0 0 0 0 0 0 0 0 0 0 0 0 0 0 0 0 127 0"/>
<feOffset dy="4"/>
<feGaussianBlur stdDeviation="2"/>
<feColorMatrix type="matrix" values="0 0 0 0 0 0 0 0 0 0 0 0 0 0 0 0 0 0 0.25 0"/>
<feBlend mode="normal" in2="effect2_dropShadow" result="effect3_dropShadow"/>
<feColorMatrix in="SourceAlpha" type="matrix" values="0 0 0 0 0 0 0 0 0 0 0 0 0 0 0 0 0 0 127 0"/>
<feOffset dy="4"/>
<feGaussianBlur stdDeviation="2"/>
<feColorMatrix type="matrix" values="0 0 0 0 0 0 0 0 0 0 0 0 0 0 0 0 0 0 0.25 0"/>
<feBlend mode="normal" in2="effect3_dropShadow" result="effect4_dropShadow"/>
<feBlend mode="normal" in="SourceGraphic" in2="effect4_dropShadow" result="shape"/>
</filter>
</defs>
</svg>
