<svg width="112" height="99" viewBox="0 0 112 99" fill="none" xmlns="http://www.w3.org/2000/svg">
<g filter="url(#filter0_dddd)">
<path d="M102.91 16.5019C101.76 11.1872 98.3718 7.00159 94.0693 5.58113C86.2709 3 55 3 55 3C55 3 23.7293 3 15.9306 5.58113C11.6282 7.00181 8.23968 11.1872 7.0896 16.5019C5 26.1349 5 46.2334 5 46.2334C5 46.2334 5 66.332 7.0896 75.965C8.23968 81.2797 11.6282 85.2909 15.9306 86.7114C23.7293 89.2925 55 89.2925 55 89.2925C55 89.2925 86.2707 89.2925 94.0693 86.7114C98.3718 85.2909 101.76 81.2797 102.91 75.965C105 66.332 105 46.2334 105 46.2334C105 46.2334 105 26.1349 102.91 16.5019V16.5019ZM44.7727 64.4814V27.9855L70.9089 46.2339L44.7727 64.4814V64.4814Z" fill="#FFED7C"/>
<path d="M55 3C55 2.5 54.9999 2.5 54.9996 2.5L54.9985 2.5L54.9941 2.5L54.977 2.50001L54.9094 2.50008L54.6455 2.50063C54.4141 2.50126 54.0739 2.50253 53.6382 2.50505C52.7668 2.5101 51.5136 2.52019 49.9855 2.54037C46.9295 2.58074 42.7728 2.66147 38.3715 2.82298C33.9711 2.98445 29.3213 3.22683 25.2804 3.59093C21.2564 3.95352 17.7855 4.44062 15.7739 5.10635L55 3ZM55 3C55 2.5 55.0001 2.5 55.0004 2.5L55.0015 2.5L55.0059 2.5L55.023 2.50001L55.0906 2.50008L55.3545 2.50063C55.5859 2.50126 55.9261 2.50253 56.3618 2.50505C57.2332 2.5101 58.4864 2.52019 60.0145 2.54037C63.0706 2.58074 67.2272 2.66147 71.6286 2.82298C76.0289 2.98445 80.6788 3.22683 84.7197 3.59093C88.7436 3.95352 92.2145 4.44062 94.2261 5.10634C98.7329 6.59427 102.22 10.9491 103.399 16.3961C104.454 21.2597 104.977 28.7322 105.238 34.9591C105.369 38.0789 105.435 40.8967 105.467 42.9345C105.484 43.9535 105.492 44.7777 105.496 45.3474C105.498 45.6323 105.499 45.8535 105.499 46.0037L105.5 46.1747L105.5 46.2184L105.5 46.2296V46.2324V46.2332C105.5 46.2333 105.5 46.2334 105 46.2334C105.5 46.2334 105.5 46.2335 105.5 46.2337V46.2345V46.2373L105.5 46.2485L105.5 46.2922L105.499 46.4632C105.499 46.6134 105.498 46.8346 105.496 47.1195C105.492 47.6891 105.484 48.5134 105.467 49.5324C105.435 51.5702 105.369 54.388 105.238 57.5078C104.977 63.7347 104.454 71.2072 103.399 76.0708C102.218 81.5269 98.7254 85.7006 94.2264 87.1861C92.2148 87.8518 88.7438 88.339 84.7196 88.7016C80.6787 89.0657 76.0289 89.3081 71.6285 89.4695C67.2272 89.631 63.0705 89.7118 60.0145 89.7521C58.4864 89.7723 57.2331 89.7824 56.3618 89.7875C55.9261 89.79 55.5859 89.7912 55.3544 89.7919L55.0906 89.7924L55.023 89.7925L55.0059 89.7925H55.0015H55.0004C55.0001 89.7925 55 89.7925 55 89.2925C55 89.7925 54.9999 89.7925 54.9996 89.7925H54.9985H54.9941L54.977 89.7925L54.9094 89.7924L54.6455 89.7919C54.4141 89.7912 54.0739 89.79 53.6382 89.7875C52.7668 89.7824 51.5136 89.7723 49.9855 89.7521C46.9295 89.7118 42.7728 89.631 38.3715 89.4695C33.9711 89.3081 29.3213 89.0657 25.2804 88.7016C21.2562 88.339 17.7851 87.8518 15.7735 87.1861C11.2747 85.7006 7.78172 81.527 6.60096 76.071C5.54595 71.2074 5.02277 63.7348 4.76164 57.5078C4.63081 54.388 4.56541 51.5702 4.53271 49.5324C4.51636 48.5134 4.50818 47.6891 4.50409 47.1195C4.50205 46.8346 4.50103 46.6134 4.50051 46.4632L4.50006 46.2922L4.50001 46.2485L4.5 46.2373L4.5 46.2345L4.5 46.2337C4.5 46.2335 4.5 46.2334 5 46.2334M55 3L5 46.2334M5 46.2334C4.5 46.2334 4.5 46.2333 4.5 46.2332L4.5 46.2324L4.5 46.2296L4.50001 46.2184L4.50006 46.1747L4.50051 46.0037C4.50103 45.8535 4.50205 45.6323 4.50409 45.3474C4.50818 44.7777 4.51636 43.9535 4.53271 42.9345C4.56541 40.8967 4.63081 38.0789 4.76164 34.9591C5.02277 28.732 5.54595 21.2595 6.60096 16.3959C7.77972 10.9491 11.267 6.59469 15.7735 5.10646L5 46.2334ZM70.0355 46.2339L45.2727 63.5225V28.9444L70.0355 46.2339Z" stroke="#333030" stroke-opacity="0.5"/>
</g>
<defs>
<filter id="filter0_dddd" x="0" y="0" width="112" height="98.2925" filterUnits="userSpaceOnUse" color-interpolation-filters="sRGB">
<feFlood flood-opacity="0" result="BackgroundImageFix"/>
<feColorMatrix in="SourceAlpha" type="matrix" values="0 0 0 0 0 0 0 0 0 0 0 0 0 0 0 0 0 0 127 0"/>
<feOffset dx="2" dy="2"/>
<feGaussianBlur stdDeviation="2"/>
<feColorMatrix type="matrix" values="0 0 0 0 0 0 0 0 0 0 0 0 0 0 0 0 0 0 0.25 0"/>
<feBlend mode="normal" in2="BackgroundImageFix" result="effect1_dropShadow"/>
<feColorMatrix in="SourceAlpha" type="matrix" values="0 0 0 0 0 0 0 0 0 0 0 0 0 0 0 0 0 0 127 0"/>
<feOffset dy="4"/>
<feGaussianBlur stdDeviation="2"/>
<feColorMatrix type="matrix" values="0 0 0 0 0 0 0 0 0 0 0 0 0 0 0 0 0 0 0.25 0"/>
<feBlend mode="normal" in2="effect1_dropShadow" result="effect2_dropShadow"/>
<feColorMatrix in="SourceAlpha" type="matrix" values="0 0 0 0 0 0 0 0 0 0 0 0 0 0 0 0 0 0 127 0"/>
<feOffset dy="4"/>
<feGaussianBlur stdDeviation="2"/>
<feColorMatrix type="matrix" values="0 0 0 0 0 0 0 0 0 0 0 0 0 0 0 0 0 0 0.25 0"/>
<feBlend mode="normal" in2="effect2_dropShadow" result="effect3_dropShadow"/>
<feColorMatrix in="SourceAlpha" type="matrix" values="0 0 0 0 0 0 0 0 0 0 0 0 0 0 0 0 0 0 127 0"/>
<feOffset dy="4"/>
<feGaussianBlur stdDeviation="2"/>
<feColorMatrix type="matrix" values="0 0 0 0 0 0 0 0 0 0 0 0 0 0 0 0 0 0 0.25 0"/>
<feBlend mode="normal" in2="effect3_dropShadow" result="effect4_dropShadow"/>
<feBlend mode="normal" in="SourceGraphic" in2="effect4_dropShadow" result="shape"/>
</filter>
</defs>
</svg>
