<svg width="204" height="42" viewBox="0 0 204 42" fill="none" xmlns="http://www.w3.org/2000/svg">
<rect x="84.6953" y="20" width="15" height="15" rx="7.5" fill="white"/>
<rect x="107.695" y="6" width="15" height="29" rx="7.5" fill="white"/>
<rect x="84.1953" y="5.5" width="16" height="30" rx="8" stroke="black" stroke-width="3"/>
<rect x="107.195" y="5.5" width="16" height="30" rx="8" stroke="black" stroke-width="3"/>
<path d="M23.6145 35.8801C23.1078 35.8801 22.6811 35.7067 22.3345 35.3601C21.9878 35.0134 21.8145 34.5867 21.8145 34.0801V10.2001C21.8145 9.48006 22.0678 8.86672 22.5745 8.36006C23.0811 7.82673 23.6945 7.56006 24.4145 7.56006H25.7345C26.2678 7.56006 26.7478 7.72006 27.1745 8.04006C27.6278 8.36006 27.9611 8.76006 28.1745 9.24006L37.2545 31.8801L46.3345 9.24006C46.5478 8.76006 46.8678 8.36006 47.2945 8.04006C47.7478 7.72006 48.2411 7.56006 48.7745 7.56006H50.0945C50.8145 7.56006 51.4278 7.82673 51.9345 8.36006C52.4411 8.86672 52.6945 9.48006 52.6945 10.2001V34.0801C52.6945 34.5867 52.5211 35.0134 52.1745 35.3601C51.8278 35.7067 51.4011 35.8801 50.8945 35.8801C50.3878 35.8801 49.9478 35.7067 49.5745 35.3601C49.2278 35.0134 49.0545 34.5867 49.0545 34.0801V11.3601L39.8145 34.2001C39.6011 34.7067 39.2545 35.1201 38.7745 35.4401C38.3211 35.7334 37.8145 35.8801 37.2545 35.8801C36.6945 35.8801 36.1745 35.7334 35.6945 35.4401C35.2411 35.1201 34.9078 34.7067 34.6945 34.2001L25.4545 11.3601V34.0801C25.4545 34.5867 25.2678 35.0134 24.8945 35.3601C24.5478 35.7067 24.1211 35.8801 23.6145 35.8801Z" fill="black"/>
<path d="M67.9753 34.4001C64.722 34.4001 62.1753 33.4801 60.3353 31.6401C58.522 29.7734 57.6153 27.1601 57.6153 23.8001C57.6153 21.9067 57.962 20.1601 58.6553 18.5601C59.3486 16.9601 60.4153 15.6667 61.8553 14.6801C63.2953 13.6934 65.0686 13.2001 67.1753 13.2001C69.1487 13.2001 70.8553 13.6667 72.2953 14.6001C73.7353 15.5067 74.8286 16.7334 75.5753 18.2801C76.322 19.8001 76.6953 21.4667 76.6953 23.2801C76.6953 23.7867 76.522 24.2134 76.1753 24.5601C75.8553 24.9067 75.4153 25.0801 74.8553 25.0801H61.2953C61.5086 26.9467 62.202 28.4001 63.3753 29.4401C64.5486 30.4801 66.1886 31.0001 68.2953 31.0001C69.4153 31.0001 70.3887 30.8934 71.2153 30.6801C72.0687 30.4667 72.8953 30.1601 73.6953 29.7601C73.9086 29.6534 74.1486 29.6001 74.4153 29.6001C74.842 29.6001 75.2153 29.7467 75.5353 30.0401C75.8553 30.3334 76.0153 30.7067 76.0153 31.1601C76.0153 31.7467 75.6686 32.2401 74.9753 32.6401C73.9353 33.2267 72.9087 33.6667 71.8953 33.9601C70.882 34.2534 69.5753 34.4001 67.9753 34.4001ZM73.0953 22.1201C73.0153 20.8134 72.6686 19.7201 72.0553 18.8401C71.4686 17.9601 70.7353 17.3201 69.8553 16.9201C68.9753 16.4934 68.082 16.2801 67.1753 16.2801C66.2686 16.2801 65.3753 16.4934 64.4953 16.9201C63.6153 17.3201 62.882 17.9601 62.2953 18.8401C61.7086 19.7201 61.3753 20.8134 61.2953 22.1201H73.0953Z" fill="black"/>
<path d="M140.555 34.1201C138.501 34.1201 136.701 33.6801 135.155 32.8001C133.608 31.9201 132.408 30.6801 131.555 29.0801C130.728 27.4534 130.315 25.6001 130.315 23.5201C130.315 21.4401 130.728 19.6001 131.555 18.0001C132.408 16.3734 133.608 15.1201 135.155 14.2401C136.701 13.3601 138.501 12.9201 140.555 12.9201C142.581 12.9201 144.368 13.3601 145.915 14.2401C147.461 15.1201 148.661 16.3734 149.515 18.0001C150.368 19.6001 150.795 21.4401 150.795 23.5201C150.795 25.6001 150.368 27.4534 149.515 29.0801C148.661 30.6801 147.461 31.9201 145.915 32.8001C144.368 33.6801 142.581 34.1201 140.555 34.1201ZM140.555 30.8001C141.648 30.8001 142.688 30.5467 143.675 30.0401C144.688 29.5334 145.515 28.7334 146.155 27.6401C146.821 26.5467 147.155 25.1601 147.155 23.4801C147.155 21.8267 146.821 20.4534 146.155 19.3601C145.515 18.2667 144.688 17.4801 143.675 17.0001C142.688 16.4934 141.648 16.2401 140.555 16.2401C139.435 16.2401 138.368 16.4934 137.355 17.0001C136.368 17.4801 135.555 18.2667 134.915 19.3601C134.275 20.4534 133.955 21.8267 133.955 23.4801C133.955 25.1601 134.275 26.5467 134.915 27.6401C135.555 28.7334 136.368 29.5334 137.355 30.0401C138.368 30.5467 139.435 30.8001 140.555 30.8001Z" fill="black"/>
<path d="M163.257 33.7201C162.724 33.7201 162.244 33.5601 161.817 33.2401C161.391 32.9201 161.097 32.5201 160.937 32.0401L155.257 15.4001C155.177 15.1601 155.137 14.9334 155.137 14.7201C155.137 14.2134 155.311 13.7867 155.657 13.4401C156.004 13.0934 156.431 12.9201 156.937 12.9201C157.311 12.9201 157.644 13.0267 157.937 13.2401C158.257 13.4267 158.471 13.6801 158.577 14.0001L163.257 29.4001L167.897 14.3601C168.031 13.9334 168.271 13.5867 168.617 13.3201C168.991 13.0534 169.404 12.9201 169.857 12.9201C170.311 12.9201 170.711 13.0534 171.057 13.3201C171.431 13.5867 171.684 13.9334 171.817 14.3601L176.457 29.4001L181.137 14.0001C181.244 13.6801 181.444 13.4267 181.737 13.2401C182.057 13.0267 182.404 12.9201 182.777 12.9201C183.284 12.9201 183.711 13.0934 184.057 13.4401C184.404 13.7867 184.577 14.2134 184.577 14.7201C184.577 14.9334 184.537 15.1601 184.457 15.4001L178.777 32.0401C178.617 32.5201 178.324 32.9201 177.897 33.2401C177.471 33.5601 176.991 33.7201 176.457 33.7201C175.924 33.7201 175.444 33.5601 175.017 33.2401C174.591 32.9201 174.284 32.5067 174.097 32.0001L169.857 18.7601L165.617 32.0001C165.431 32.5067 165.124 32.9201 164.697 33.2401C164.271 33.5601 163.791 33.7201 163.257 33.7201Z" fill="black"/>
</svg>
