<svg width="185" height="42" viewBox="0 0 185 42" fill="none" xmlns="http://www.w3.org/2000/svg">
<rect x="85" y="20" width="15" height="15" rx="7.5" fill="#FFFE55"/>
<rect x="108" y="6" width="15" height="29" rx="7.5" fill="#FFFE55"/>
<rect x="84.5" y="5.5" width="16" height="30" rx="8" stroke="white" stroke-width="3"/>
<rect x="107.5" y="5.5" width="16" height="30" rx="8" stroke="white" stroke-width="3"/>
<path d="M23.9191 35.88C23.4125 35.88 22.9858 35.7067 22.6391 35.36C22.2925 35.0133 22.1191 34.5867 22.1191 34.08V10.2C22.1191 9.48 22.3725 8.86666 22.8791 8.36C23.3858 7.82666 23.9991 7.56 24.7191 7.56H26.0391C26.5725 7.56 27.0525 7.72 27.4791 8.04C27.9325 8.36 28.2658 8.76 28.4791 9.24L37.5591 31.88L46.6391 9.24C46.8525 8.76 47.1725 8.36 47.5991 8.04C48.0525 7.72 48.5458 7.56 49.0791 7.56H50.3991C51.1191 7.56 51.7325 7.82666 52.2391 8.36C52.7458 8.86666 52.9991 9.48 52.9991 10.2V34.08C52.9991 34.5867 52.8258 35.0133 52.4791 35.36C52.1325 35.7067 51.7058 35.88 51.1991 35.88C50.6925 35.88 50.2525 35.7067 49.8791 35.36C49.5325 35.0133 49.3591 34.5867 49.3591 34.08V11.36L40.1191 34.2C39.9058 34.7067 39.5591 35.12 39.0791 35.44C38.6258 35.7333 38.1191 35.88 37.5591 35.88C36.9991 35.88 36.4791 35.7333 35.9991 35.44C35.5458 35.12 35.2125 34.7067 34.9991 34.2L25.7591 11.36V34.08C25.7591 34.5867 25.5725 35.0133 25.1991 35.36C24.8525 35.7067 24.4258 35.88 23.9191 35.88Z" fill="white"/>
<path d="M68.28 34.4C65.0267 34.4 62.48 33.48 60.64 31.64C58.8267 29.7733 57.92 27.16 57.92 23.8C57.92 21.9067 58.2667 20.16 58.96 18.56C59.6533 16.96 60.72 15.6667 62.16 14.68C63.6 13.6933 65.3733 13.2 67.48 13.2C69.4533 13.2 71.16 13.6667 72.6 14.6C74.04 15.5067 75.1333 16.7333 75.88 18.28C76.6267 19.8 77 21.4667 77 23.28C77 23.7867 76.8267 24.2133 76.48 24.56C76.16 24.9067 75.72 25.08 75.16 25.08H61.6C61.8133 26.9467 62.5067 28.4 63.68 29.44C64.8533 30.48 66.4933 31 68.6 31C69.72 31 70.6933 30.8933 71.52 30.68C72.3733 30.4667 73.2 30.16 74 29.76C74.2133 29.6533 74.4533 29.6 74.72 29.6C75.1467 29.6 75.52 29.7467 75.84 30.04C76.16 30.3333 76.32 30.7067 76.32 31.16C76.32 31.7467 75.9733 32.24 75.28 32.64C74.24 33.2267 73.2133 33.6667 72.2 33.96C71.1867 34.2533 69.88 34.4 68.28 34.4ZM73.4 22.12C73.32 20.8133 72.9733 19.72 72.36 18.84C71.7733 17.96 71.04 17.32 70.16 16.92C69.28 16.4933 68.3867 16.28 67.48 16.28C66.5733 16.28 65.68 16.4933 64.8 16.92C63.92 17.32 63.1867 17.96 62.6 18.84C62.0133 19.72 61.68 20.8133 61.6 22.12H73.4Z" fill="white"/>
<path d="M140.859 34.12C138.806 34.12 137.006 33.68 135.459 32.8C133.913 31.92 132.713 30.68 131.859 29.08C131.033 27.4533 130.619 25.6 130.619 23.52C130.619 21.44 131.033 19.6 131.859 18C132.713 16.3733 133.913 15.12 135.459 14.24C137.006 13.36 138.806 12.92 140.859 12.92C142.886 12.92 144.673 13.36 146.219 14.24C147.766 15.12 148.966 16.3733 149.819 18C150.673 19.6 151.099 21.44 151.099 23.52C151.099 25.6 150.673 27.4533 149.819 29.08C148.966 30.68 147.766 31.92 146.219 32.8C144.673 33.68 142.886 34.12 140.859 34.12ZM140.859 30.8C141.953 30.8 142.993 30.5467 143.979 30.04C144.993 29.5333 145.819 28.7333 146.459 27.64C147.126 26.5467 147.459 25.16 147.459 23.48C147.459 21.8267 147.126 20.4533 146.459 19.36C145.819 18.2667 144.993 17.48 143.979 17C142.993 16.4933 141.953 16.24 140.859 16.24C139.739 16.24 138.673 16.4933 137.659 17C136.673 17.48 135.859 18.2667 135.219 19.36C134.579 20.4533 134.259 21.8267 134.259 23.48C134.259 25.16 134.579 26.5467 135.219 27.64C135.859 28.7333 136.673 29.5333 137.659 30.04C138.673 30.5467 139.739 30.8 140.859 30.8Z" fill="white"/>
<path d="M163.562 33.72C163.029 33.72 162.549 33.56 162.122 33.24C161.695 32.92 161.402 32.52 161.242 32.04L155.562 15.4C155.482 15.16 155.442 14.9333 155.442 14.72C155.442 14.2133 155.615 13.7867 155.962 13.44C156.309 13.0933 156.735 12.92 157.242 12.92C157.615 12.92 157.949 13.0267 158.242 13.24C158.562 13.4267 158.775 13.68 158.882 14L163.562 29.4L168.202 14.36C168.335 13.9333 168.575 13.5867 168.922 13.32C169.295 13.0533 169.709 12.92 170.162 12.92C170.615 12.92 171.015 13.0533 171.362 13.32C171.735 13.5867 171.989 13.9333 172.122 14.36L176.762 29.4L181.442 14C181.549 13.68 181.749 13.4267 182.042 13.24C182.362 13.0267 182.709 12.92 183.082 12.92C183.589 12.92 184.015 13.0933 184.362 13.44C184.709 13.7867 184.882 14.2133 184.882 14.72C184.882 14.9333 184.842 15.16 184.762 15.4L179.082 32.04C178.922 32.52 178.629 32.92 178.202 33.24C177.775 33.56 177.295 33.72 176.762 33.72C176.229 33.72 175.749 33.56 175.322 33.24C174.895 32.92 174.589 32.5067 174.402 32L170.162 18.76L165.922 32C165.735 32.5067 165.429 32.92 165.002 33.24C164.575 33.56 164.095 33.72 163.562 33.72Z" fill="white"/>
</svg>
